PathFileType	4	(X/Y/Z)	C:/Users/opensim2020/Desktop/walking_exp_matlab/subject03_walking04_straight_02.trc	
DataRate	CameraRate	NumFrames	NumMarkers	Units	OrigDataRate	OrigDataStartFrame	OrigNumFrames	
100.00	100.00	9	51	mm	100.00	1669	259	
Frame#	Time	LFHD			RFHD			LBHD			RBHD			C7			T10			CLAV			STRN			RBAK			LSHO			LUPA			LELB			LFRM			LWRA			LWRB			LFIN			RSHO			RUPA			RELB			RFRM			RWRA			RWRB			RFIN			LASI			RASI			LPSI			RPSI			LTHI			LKNE			LTIB			LANK			LHEE			LTOE			RTHI			RKNE			RTIB			RANK			RHEE			RTOE			*39			*40			*41			*42			*43			*44			*45			*46			*47			*48			*49			*50			
		X1	Y1	Z1	X2	Y2	Z2	X3	Y3	Z3	X4	Y4	Z4	X5	Y5	Z5	X6	Y6	Z6	X7	Y7	Z7	X8	Y8	Z8	X9	Y9	Z9	X10	Y10	Z10	X11	Y11	Z11	X12	Y12	Z12	X13	Y13	Z13	X14	Y14	Z14	X15	Y15	Z15	X16	Y16	Z16	X17	Y17	Z17	X18	Y18	Z18	X19	Y19	Z19	X20	Y20	Z20	X21	Y21	Z21	X22	Y22	Z22	X23	Y23	Z23	X24	Y24	Z24	X25	Y25	Z25	X26	Y26	Z26	X27	Y27	Z27	X28	Y28	Z28	X29	Y29	Z29	X30	Y30	Z30	X31	Y31	Z31	X32	Y32	Z32	X33	Y33	Z33	X34	Y34	Z34	X35	Y35	Z35	X36	Y36	Z36	X37	Y37	Z37	X38	Y38	Z38	X39	Y39	Z39	X40	Y40	Z40	X41	Y41	Z41	X42	Y42	Z42	X43	Y43	Z43	X44	Y44	Z44	X45	Y45	Z45	X46	Y46	Z46	X47	Y47	Z47	X48	Y48	Z48	X49	Y49	Z49	X50	Y50	Z50	X51	Y51	Z51	

130	1.290	1630.07813	179.20734	1611.06543	1497.71277	197.49472	1611.88501	1642.61328	308.11447	1570.19653	1512.08704	321.87268	1571.39526	1588.31934	348.03613	1408.70166	1596.07776	377.82169	1093.14966	1580.13696	227.35768	1331.42456	1590.13586	180.97382	1167.95435	1503.71973	407.87100	1226.88953	1737.22791	260.74194	1372.97412	1815.18994	231.78343	1184.46313	1827.64478	187.93016	1070.67615	1811.20679	101.87795	976.77307	1763.46228	25.84562	895.83948	1814.05627	41.95282	880.24664	1796.67493	-22.95905	833.54779	1423.14307	286.72565	1348.65710	1362.84631	306.50009	1122.39148	1353.79700	302.88251	1008.76849	1354.49487	306.80850	871.51837	1391.18530	290.36691	772.82446	1347.40027	323.41626	772.18372	1360.37756	314.37903	697.98993	1713.16968	209.15404	926.05859	1472.91785	204.85837	936.39191	1657.52234	370.02856	950.45459	1509.07361	367.53259	961.02753	1747.00134	310.39499	630.22754	1718.02686	350.99142	454.74857	1714.34851	493.69434	310.42346	1670.75720	620.84027	145.10774	1632.66040	670.90326	139.04143	1641.54553	517.83521	33.23320	1433.18494	208.02388	645.42316	1476.88757	147.51994	475.80881	1472.49109	150.72321	286.06906	1520.75281	130.52257	71.56282	1574.31555	172.26630	40.08948	1535.26843	-12.11848	38.39475																																				 
131	1.300	1629.15540	168.16435	1612.62244	1496.80432	186.45816	1613.29822	1641.94714	297.27441	1572.57666	1511.35474	311.07346	1573.56787	1587.41992	337.32144	1410.24707	1596.07507	366.54645	1094.76062	1579.42334	216.54895	1333.47815	1589.35876	169.79131	1170.10815	1502.88904	396.60907	1228.29004	1736.41772	250.32642	1375.30847	1813.77673	222.23572	1186.33264	1825.73706	179.53230	1071.96985	1810.01306	95.11803	976.24341	1762.95142	20.73097	893.55292	1813.54834	37.35963	878.37915	1796.54175	-26.51057	830.31555	1422.46594	275.94904	1350.79260	1362.11121	294.55521	1124.56763	1353.24158	290.33575	1010.98126	1353.68665	293.71902	873.80127	1390.24915	276.60306	775.15894	1346.49451	309.90057	774.38593	1359.48364	300.55920	699.97644	1712.12415	197.15373	927.50452	1472.14331	193.25623	939.43591	1657.23242	357.82919	952.00452	1508.93652	356.05151	963.54230	1747.13757	295.38055	630.39447	1720.05383	333.10608	454.24954	1715.37512	479.88303	313.49258	1670.01929	610.63904	151.96495	1631.36829	660.10693	149.32025	1641.34717	516.47180	33.57417	1431.99829	198.02777	647.21826	1475.59021	140.24396	477.00601	1471.53503	147.64337	286.30551	1520.73010	130.74648	71.72554	1574.07104	172.37621	40.06378	1535.27417	-12.15108	38.25241																																				 
132	1.310	1628.25403	157.20699	1614.06604	1495.94128	175.50824	1614.50269	1641.35120	286.59024	1574.93372	1510.64038	300.31232	1575.64087	1586.66675	326.87152	1411.88660	1595.77417	355.45633	1096.26062	1578.77991	205.85118	1335.34351	1588.75220	158.51912	1172.17151	1502.40076	385.14258	1229.79431	1735.53455	240.15004	1377.63831	1812.29724	212.69861	1188.28662	1823.68604	171.26288	1073.26038	1808.80420	88.91046	975.69287	1762.51685	15.93534	891.07141	1813.14355	33.12050	876.50684	1796.45862	-29.66441	826.67749	1421.90613	265.13602	1352.99561	1361.23853	282.69516	1126.89331	1352.50598	277.81323	1013.36182	1352.91638	280.21912	876.27100	1389.65210	263.26779	777.53088	1345.52539	295.86935	776.70911	1358.63440	286.55988	702.29358	1710.17383	185.36482	929.15302	1471.10535	181.80891	942.11804	1656.75208	345.94528	953.75531	1508.55286	344.50763	965.85883	1747.60095	280.08063	630.55701	1722.12024	314.41513	453.62711	1716.44934	464.64246	316.43393	1670.07629	599.25635	158.85789	1630.36572	647.68152	159.65089	1640.08362	515.60309	32.82750	1430.72986	188.52296	648.70581	1474.08704	133.86816	477.65128	1470.72375	144.84624	286.49500	1521.05530	130.58174	71.83650	1573.87952	172.41251	40.13156	1535.18384	-12.25209	38.12400																																				 
133	1.320	1627.39429	146.24290	1615.32935	1495.05078	164.81108	1615.49121	1640.46216	275.79388	1577.05237	1510.07629	289.68741	1577.48303	1585.83313	316.29745	1413.01550	1595.06421	344.30881	1097.60181	1578.13049	195.25964	1337.09473	1588.17358	147.26419	1174.08044	1501.37170	373.79895	1231.36072	1734.65027	230.01363	1379.78320	1810.86597	203.13129	1190.18408	1821.79004	163.22955	1074.52246	1807.76660	82.88518	975.10779	1762.24255	11.47542	888.48212	1812.85303	29.40171	874.57794	1796.43945	-32.10922	822.70160	1421.46729	254.16121	1355.19946	1360.25696	270.93054	1129.19739	1351.60742	265.31857	1015.75781	1351.92358	266.71481	878.67737	1388.82434	248.69116	780.25433	1344.49207	281.61673	779.02814	1357.75818	271.77490	704.51971	1708.49170	173.64120	930.90564	1470.02246	170.54198	944.30341	1656.04553	334.33539	955.45618	1507.86304	332.96478	967.90906	1748.11560	264.65445	630.47955	1723.98108	295.30469	452.85468	1717.32349	448.34665	319.21069	1671.11218	586.80560	165.32016	1630.25671	633.66486	169.86977	1639.88013	514.04626	32.85210	1430.00269	179.76357	649.79944	1472.72253	128.26878	477.94147	1470.06934	141.66307	286.66495	1520.83008	130.52881	71.90426	1573.83301	172.31718	40.21181	1535.22534	-12.46554	37.98284																																				 
134	1.330	1626.51477	135.42346	1616.35925	1494.22583	154.17863	1616.22900	1640.24817	265.26215	1579.03125	1509.56677	279.39362	1579.08240	1585.08960	305.71609	1414.06189	1594.16919	333.38498	1098.82361	1577.70654	184.39888	1338.50159	1587.66223	136.26372	1175.67957	1500.29907	362.47070	1232.81848	1733.86743	219.83850	1381.60046	1809.48950	193.61972	1191.87854	1820.00684	155.34119	1075.53918	1806.83240	76.95988	974.26746	1762.07800	7.08469	885.70667	1812.83679	25.40841	872.63641	1796.46582	-34.33411	818.25208	1421.10083	243.20345	1357.15161	1359.15295	259.20923	1131.39966	1350.52368	252.93066	1018.03436	1350.86060	253.04684	880.96436	1387.48389	234.01750	782.51782	1343.46741	266.97467	781.19397	1356.87231	256.85321	706.55151	1707.14465	162.59476	932.35492	1468.97864	159.83444	945.82495	1655.09497	323.13928	957.03522	1506.95947	321.50653	969.61365	1748.60645	249.10278	630.24860	1725.61060	275.80859	451.94971	1717.91101	431.03256	321.88785	1673.01880	572.51917	170.82243	1631.72034	618.59045	180.23444	1639.99182	511.97391	33.68467	1429.43176	171.68044	650.55792	1471.64941	122.83218	477.88141	1469.79407	138.11087	286.74924	1521.17908	130.39137	72.02439	1573.97729	172.24498	40.32142	1535.51880	-12.73241	37.83966																																				 
135	1.340	1625.71985	124.66228	1617.27881	1493.41455	143.73622	1616.71045	1639.53833	254.64989	1580.51563	1509.10022	269.14185	1580.25305	1584.65112	295.59140	1414.92200	1593.03418	322.59717	1099.76196	1577.36865	173.96771	1339.59290	1587.28796	125.35064	1176.97913	1498.92908	351.16785	1234.06885	1733.14368	209.96797	1383.08276	1808.25574	184.17763	1193.19055	1818.44055	147.57353	1076.20984	1806.02954	71.06416	973.21051	1762.08350	2.75791	882.60443	1812.81714	21.80886	870.38354	1796.60291	-36.11773	813.43420	1420.78943	232.07864	1358.78931	1357.89661	247.50443	1133.41638	1349.13770	240.63048	1020.07587	1349.63855	239.19363	883.01349	1386.46777	219.06847	784.89154	1342.43237	252.03453	783.04968	1355.90796	240.94450	708.36639	1705.80627	151.79428	933.59784	1467.80847	148.68765	946.93842	1654.01025	312.25928	958.10266	1505.87854	310.25909	970.93054	1748.90979	233.73459	629.67474	1726.93567	256.00137	450.85339	1718.55151	413.09943	324.36398	1675.27698	557.35693	176.26802	1634.34680	603.02771	190.51515	1639.22437	506.95984	36.88434	1429.26611	164.10977	650.95239	1470.98901	117.23777	477.55234	1469.69971	134.54440	286.71796	1521.53442	130.09483	72.01548	1574.11572	172.15610	40.31866	1535.73804	-12.93768	37.72923																																				 
136	1.350	1624.94397	114.03979	1618.03699	1492.59937	133.49048	1617.15686	1639.54663	244.21440	1581.85217	1508.80652	258.83682	1581.11560	1583.99719	285.16971	1415.55042	1591.63220	311.81235	1100.46851	1577.15271	163.36449	1340.55420	1586.97839	114.84776	1177.89160	1497.67627	340.07150	1235.17688	1732.52991	200.09494	1384.09375	1807.26196	174.76260	1194.10486	1817.12024	139.94136	1076.39478	1805.47888	65.27348	971.77667	1762.09875	-1.41494	879.20703	1812.89038	18.37397	867.71222	1796.74658	-37.60309	808.17975	1420.55066	220.84213	1360.16064	1356.62524	235.76280	1135.09473	1347.64209	228.33797	1021.78760	1348.39258	225.16902	884.74750	1385.32019	203.74661	786.99408	1341.28748	236.83794	784.64063	1355.33167	225.89565	710.31818	1704.73938	141.32140	934.54230	1466.92810	138.11490	947.40088	1652.82983	301.89417	958.87555	1504.76440	299.24103	971.75073	1749.21326	218.58313	629.06793	1727.93079	236.01868	449.82977	1719.99573	394.24631	326.42938	1677.04163	542.13971	182.49715	1637.10205	586.80585	200.43021	1639.74219	499.94077	41.21338	1429.28101	156.87788	650.99280	1470.57520	111.36153	477.13275	1469.50391	131.10675	286.66397	1521.80725	129.83821	72.01779	1574.27588	172.09814	40.35008	1535.93201	-13.09983	37.59591																																				 
137	1.360	1624.24585	103.43125	1618.85010	1492.02820	123.07922	1617.62170	1639.24011	233.64075	1582.94397	1508.50256	248.57086	1581.85303	1583.69617	275.29254	1416.37573	1590.09399	301.23367	1101.02710	1577.03589	153.10951	1341.37280	1586.78540	104.20745	1178.69519	1496.15393	329.02954	1235.84778	1732.10779	190.35661	1384.70837	1806.46106	165.47801	1194.50171	1816.08386	132.33173	1076.12488	1804.96741	59.45838	969.93982	1762.35828	-5.54590	875.54456	1813.14893	14.77259	864.82867	1796.99829	-38.77814	802.59967	1420.24292	209.60370	1361.27026	1355.27722	223.93976	1136.41797	1345.89392	215.98402	1023.25195	1346.98132	210.97009	886.18835	1384.33960	188.71478	788.70325	1340.15601	221.37755	785.90326	1354.56946	209.09132	711.59735	1704.02380	131.22977	935.17419	1466.05212	127.74376	947.09625	1651.65735	291.87460	959.21637	1503.47510	288.56766	972.23529	1749.44189	203.57907	628.57135	1728.69006	215.84776	448.97021	1721.79651	374.68149	328.02271	1678.11133	525.93634	188.61502	1638.62061	570.24561	209.32758	1641.47095	489.78638	46.00333	1428.51892	149.44055	651.15143	1470.05713	105.62522	476.57404	1469.16138	127.68381	286.67587	1521.88708	129.73734	72.07607	1574.24988	172.13358	40.44035	1536.01855	-13.25959	37.46368																																				 
138	1.370	1623.57239	92.91111	1619.63977	1491.35059	112.96738	1618.05469	1639.02734	223.13293	1583.90552	1508.28040	238.41388	1582.50281	1583.26343	265.11676	1416.96570	1588.34265	290.72992	1101.21936	1576.96045	142.90536	1342.07300	1586.64111	93.94479	1179.33582	1494.63464	318.26755	1236.33911	1731.95007	180.70837	1384.95313	1805.83899	156.38451	1194.32996	1815.20923	124.57173	1075.41785	1804.59937	53.62371	967.60669	1762.64539	-9.44903	871.30933	1813.45728	11.42607	861.53101	1797.32593	-39.64775	796.77985	1419.94080	198.34897	1362.04517	1353.85437	211.98814	1137.38794	1344.24316	203.47142	1024.24792	1345.52051	196.66386	887.37152	1382.98267	172.62241	790.31976	1339.05737	205.18622	786.82562	1353.59143	192.52591	712.82697	1703.58667	121.35767	935.58722	1465.24561	117.16933	946.68237	1650.44763	282.10834	959.08453	1502.21973	278.21335	972.51990	1749.44421	188.72043	628.33484	1729.30237	195.29056	448.46402	1723.17004	354.58566	329.56836	1678.87561	509.61197	194.95784	1638.65771	553.58478	216.41782	1644.68872	476.58560	51.21440	1427.06787	141.99339	651.40112	1469.21277	100.31309	476.00854	1468.69714	124.59646	286.64001	1521.89294	129.61624	72.11600	1574.19177	172.09874	40.52418	1536.00879	-13.32302	37.38353																																				 
